<svg xmlns="http://www.w3.org/2000/svg" viewBox="0 0 48 60" width="48" height="60">
  <defs>
    <linearGradient id="pinBody" x1="0" y1="0" x2="0" y2="1">
      <stop offset="0" stop-color="#a8324f"/>
      <stop offset="1" stop-color="#6b1530"/>
    </linearGradient>
    <clipPath id="scene"><circle cx="24" cy="22" r="13.5"/></clipPath>
  </defs>
  <!-- corpo do pin (gota de mapa) -->
  <path d="M24 2C12.4 2 3 11.2 3 22.6 3 36 18 47 24 58c6-11 21-22 21-35.4C45 11.2 35.6 2 24 2Z" fill="url(#pinBody)"/>
  <!-- cena de por do sol dentro do pin -->
  <g clip-path="url(#scene)">
    <rect x="9" y="7" width="30" height="30" fill="#fff7ec"/>
    <circle cx="24" cy="23" r="6.5" fill="#f5c46b"/>
    <g stroke="#f5c46b" stroke-width="1.5" stroke-linecap="round">
      <line x1="24" y1="11.4" x2="24" y2="14.6"/>
      <line x1="15.5" y1="14.5" x2="17.8" y2="16.8"/>
      <line x1="32.5" y1="14.5" x2="30.2" y2="16.8"/>
    </g>
    <path d="M9 33 L19 22.5 L26 31 L33 21.5 L39 33 Z" fill="#d06a3c"/>
    <path d="M9 37 L20 28 L30 35 L39 28 L39 37 Z" fill="#8a1f3f" opacity="0.85"/>
  </g>
  <!-- aro sutil -->
  <path d="M24 2C12.4 2 3 11.2 3 22.6 3 36 18 47 24 58c6-11 21-22 21-35.4C45 11.2 35.6 2 24 2Z" fill="none" stroke="#6b1530" stroke-width="1.5" opacity=".22"/>
</svg>
