<svg xmlns="http://www.w3.org/2000/svg" width="64" height="64" viewBox="0 0 64 64">
  <defs><clipPath id="clip"><path d="M32 4c-11 0-19 8-19 19 0 14 19 33 19 33s19-19 19-33C51 12 43 4 32 4z"></path></clipPath></defs>
  <path d="M32 4c-11 0-19 8-19 19 0 14 19 33 19 33s19-19 19-33C51 12 43 4 32 4z" fill="none" stroke="#ffffff" stroke-width="3"></path>
  <g clip-path="url(#clip)">
    <circle cx="32" cy="21" r="8" fill="#f5c46b"></circle>
    <path d="M8 40 L20 32 L30 38 L40 30 L56 40 L56 60 L8 60 Z" fill="rgba(255,255,255,.5)"></path>
    <path d="M8 46 L22 40 L32 45 L44 39 L56 46 L56 60 L8 60 Z" fill="#ffffff"></path>
  </g>
</svg>